<svg xmlns="http://www.w3.org/2000/svg" width="234" height="212"  xmlns:v="https://vecta.io/nano"><path fill="#fff" d="M221.078 157.486l12.905-18.074s-22.067.001-25.029-.003l6.42-3.318-5.749-10.737 9.646-7.433-7.574-9.537 8.164-9.037-9.154-8.031 6.42-10.35-10.441-6.268 4.469-11.33-11.392-4.302 2.375-11.946-11.978-2.197.205-12.178-12.178-.023-1.973-12.02-11.985 2.152-4.087-11.475-11.409 4.258-6.069-10.559-10.465 6.227L124.342 2l-9.185 7.996-9.392-7.753-7.61 9.508-10.625-5.95-5.79 10.715-11.518-3.958-3.784 11.577L54.4 22.298l-1.657 12.066-12.173.342.523 12.168-11.916 2.512 2.688 11.879-11.276 4.599 4.765 11.21-10.274 6.537 6.688 10.179-8.941 8.268 8.397 8.82-7.32 9.732 9.837 7.178-5.466 10.883 1.533.743c-.833.001-19.808-.002-19.808-.002l13.236 17.133L.414 174.442l28.519-.005 1.984-.064a32.45 32.45 0 0 0 3.575 4.085c.773.748 2.067 2.001 4.004 2.001 1.24 0 2.258-.504 3.196-1.021 2.233-1.231 4.562-2.341 6.96-3.316l.598 8.178 12.13-1.068 3.042 11.794 11.745-3.218 5.099 11.061 10.98-5.264 6.991 9.973 9.865-7.14 8.659 8.563 8.432-8.787 10.049 6.879 6.728-10.152 11.116 4.975 4.807-11.19 11.824 2.909 2.732-11.869 12.154.75.181-3.895c2.096.771 4.101 1.583 6.054 2.448 1.882.835 3.353 1.351 4.874 1.351 2.793 0 4.617-1.729 6.393-3.656 1.245-1.35 2.367-2.787 3.371-4.32l27.524.019-12.922-16.977z"/><path fill="#28aae1" d="M166.389 173.397l-1.357-.296c-9.336-2.011-19.226-3.468-29.413-4.331-6.585-.556-13.476-.838-20.482-.838-2.705 0-5.489.042-8.272.123l-3.76.105-14.054.56c-7.452.484-15.83 1.241-24.413 3.011 14.312 11.254 32.36 17.959 51.975 17.959a83.76 83.76 0 0 0 49.776-16.293zm-49.776 19.735c-21.406 0-41.018-7.684-56.234-20.439-2.309.568-4.625 1.221-6.932 1.965l-1.677.567.411 5.63 11.601-1.02 2.911 11.279 11.232-3.079 4.875 10.581 10.503-5.037 6.687 9.541 9.436-6.829 8.277 8.189 8.063-8.405 9.612 6.58 6.435-9.71 10.631 4.759 4.598-10.703 11.311 2.782 2.612-11.353 11.622.719.064-1.354c-3.624-1.212-7.538-2.327-11.907-3.387-14.902 11.73-33.698 18.724-54.131 18.724zm-91.238-82.496l-7.002 9.307 9.409 6.867-5.23 10.409 10.485 5.073-1.146 3.898c1.858-1.184 3.744-2.189 5.578-3.062-5.43-11.403-8.471-24.164-8.471-37.635 0-48.402 39.227-87.641 87.615-87.641s87.614 39.236 87.614 87.641c0 13.795-3.191 26.846-8.868 38.457 2.497 1.136 5.248 2.555 8 4.346l-2.643-8.199 10.345-5.349-5.499-10.269 9.227-7.107-7.243-9.121 7.807-8.643-8.756-7.681 6.14-9.899-9.989-5.994 4.276-10.836-10.896-4.115 2.269-11.424-11.455-2.104.195-11.646-11.646-.021-1.887-11.496-11.46 2.061-3.909-10.975-10.91 4.07-5.807-10.098-10.007 5.955L124 6.507l-8.787 7.646-8.984-7.414-7.277 9.094-10.165-5.693-5.537 10.248-11.011-3.785-3.621 11.072-11.513-1.758-1.588 11.541-11.64.326.5 11.639-11.396 2.402 2.569 11.359-10.783 4.4 4.557 10.721-9.826 6.252 6.398 9.736-8.554 7.907 8.033 8.436zm91.238-89.344c-46.492 0-84.181 37.697-84.181 84.201 0 12.977 2.938 25.266 8.181 36.242l2.638-1.039c9.801-3.717 19.832-5.469 27.477-6.584 8.73-1.273 17.797-1.928 22.425-2.203 5.645-.337 13.518-.699 17.455-.699l.592.003 1.285.013 15.223.201c2.163.031 2.742.037 5.526.244l.969.072c4.738.352 17.327 1.283 23.372 2.154 13.931 2.012 24.388 4.602 33.908 8.404l.713.291c5.503-11.193 8.598-23.782 8.598-37.098-.001-46.505-37.69-84.202-84.181-84.202zm91.852 135.527c-5.17-5.255-11.516-8.635-18.256-11.325-10.658-4.257-21.814-6.562-33.125-8.194-6.42-.924-20.66-1.943-24.109-2.199s-3.283-.197-7.668-.271l-14.145-.182c-3.388-.037-11.279.302-17.805.692s-14.789 1.104-22.134 2.173c-9.114 1.331-18.117 3.123-26.755 6.396-6.488 2.458-12.631 5.533-17.486 10.714-.714.759-.834 1.533-.67 2.362a30.72 30.72 0 0 0 2.169 6.794c2.078 4.569 4.569 8.866 8.219 12.4 1.402 1.36 1.784 1.406 3.463.481 3.904-2.156 7.993-3.906 12.228-5.273 11.841-3.826 24.088-5.291 36.44-6.095 5.971-.39 11.953-.491 17.933-.669 9.734-.291 19.45-.099 29.147.725 10.033.85 19.993 2.27 29.847 4.395 9.367 2.021 18.574 4.529 27.368 8.426 3.839 1.7 4.8 1.537 7.651-1.554 4.696-5.099 7.15-11.285 8.305-18.044.119-.706-.101-1.23-.617-1.752zm-185.263.782c-.487-2.443.529-4.148 1.466-5.15.826-.879 1.684-1.697 2.564-2.467.041-.062.096-.123.17-.17.043-.027.081-.055.124-.088l.743-.614c1.227-1.271 1.359-2.952 1.871-4.528.083-.259.018-.543-.276-.665-1.114-.466-2.048-1.347-3.371-1.344l-19.616.008c0 .532.279.804.52 1.12l9.272 12.081c.466.593.337.954.026 1.385l-5.15 7.091-4.984 7.011h22.272c-1.039-1.709-2.13-3.739-3.239-6.175-1.067-2.345-1.87-4.866-2.392-7.495zm194.595.808c-.307-.406-.785-.766-.254-1.474 2.093-2.8 4.104-5.655 6.133-8.499l4.162-5.85c-7.797 0-15.32.009-22.843-.013-.918-.003-.991.22-.675 1.056.479 1.278.65 2.672 1.147 3.941.475 1.217.526 2.659 1.503 3.649a41.51 41.51 0 0 1 3.753 3.376c1.588 1.608 1.681 3.34 1.481 4.504-.777 4.569-2.068 8.607-3.902 12.188h19.324l-2.498-3.301-7.331-9.577z"/><g fill="#fff"><path d="M66.85 53.077c-1.148 0-2.292.496-3.305.938-.833.361-1.621.703-2.247.703-.342 0-.61-.102-.84-.322-.625-.592-.514-1.691.251-2.496 1.023-1.078 2.533-1.176 2.546-1.176l.517-.029-.787-2.432-.288.002c-.083 0-2.039.033-3.812 1.896-1.819 1.918-1.914 4.574-.223 6.182.695.66 1.483.982 2.414.982h0c1.106 0 2.189-.453 3.238-.893.867-.359 1.688-.701 2.353-.701.39 0 .694.113.954.363.78.74.48 1.752-.159 2.43-1.208 1.271-3.038 1.318-3.055 1.318l-.466.006.442 2.5.362.012c.26 0 2.604-.061 4.518-2.076 1.818-1.912 1.881-4.498.146-6.148-.75-.713-1.586-1.059-2.559-1.059zm10.001-4.078c0 .018-.131 1.559-1.346 2.508-.541.424-1.165.648-1.804.648-.893 0-1.758-.445-2.363-1.221-.518-.664-.761-1.443-.682-2.193.079-.744.473-1.432 1.108-1.928.765-.598 1.621-.686 2.062-.686a2.51 2.51 0 0 1 .349.021l.496.08-.172-2.33-.291-.062c-.025-.004-.258-.051-.631-.051-.667 0-1.989.156-3.333 1.207-1.198.941-1.954 2.229-2.124 3.625-.167 1.385.241 2.787 1.152 3.953 1.053 1.346 2.572 2.117 4.167 2.117 1.203 0 2.385-.428 3.416-1.236 2.053-1.605 2.167-3.713 2.173-3.801l.012-.275-2.15-.932-.039.556zm3.29-5.1c-.299-1.201.068-2.314.936-2.836.195-.117.394-.182.394-.182l.474-.152-1.353-2.266-.312.125c-.01.002-.245.094-.479.234-.863.516-1.404 1.393-1.555 2.42l-.599-.998-2.176 1.303 5.279 8.832 2.228-1.334-2.198-3.676c-.319-.53-.528-1.011-.639-1.47zm8.049-8.91l1.923 4.445c.342.793.424 1.627.231 2.352-.141.527-.495 1.238-1.398 1.627-.93.4-1.44.119-2.038-1.264l-2.406-5.566-2.383 1.029 2.57 5.945c.766 1.77 1.848 2.668 3.219 2.668.521 0 1.093-.133 1.697-.393a4.26 4.26 0 0 0 2.297-2.398l.424.979 2.33-1.01-4.081-9.445-2.385 1.031zm16.847-4.935c-1.389.291-2.367 1.283-2.853 2.291-.721-.965-1.81-1.318-3.221-1.023-1.112.232-1.988.984-2.517 1.828l-.213-1.027-2.486.52 2.103 10.074 2.54-.533-.965-4.631c-.075-.359-.15-.773-.137-1.135.054-1.047.559-2.363 1.811-2.625.898-.189 1.312.213 1.621 1.691l1.242 5.955 2.542-.531-.969-4.631c-.097-.473-.142-.869-.132-1.215.051-1.09.618-2.299 1.771-2.539a1.79 1.79 0 0 1 .375-.041c.551 0 .98.293 1.279 1.727l1.242 5.955 2.541-.531-1.324-6.34c-.545-2.612-1.979-3.714-4.25-3.239zm15.869-4.203l-5.956 13.666 2.735.189 1.56-3.711 4.368.301 1.053 3.893 2.752.188-4.026-14.357-2.486-.169zm2.11 8.066l-2.854-.195 1.537-3.588.188-.492.117.518 1.012 3.757zm8.025 5.041c-.27-.051-.349-.129-.389-.195-.07-.107-.126-.342-.027-.855l2.014-10.549-2.547-.486-2.075 10.861c-.224 1.164-.039 2.068.544 2.697.401.43.975.709 1.752.859.332.064.629.08.645.082l.343.018.454-2.367-.45-.029c-.001-.001-.128-.011-.264-.036zm4.687 1.193c-.265-.072-.337-.154-.376-.225-.056-.111-.1-.35.037-.855l2.761-10.379-2.508-.668-2.845 10.686c-.303 1.145-.186 2.064.354 2.729.372.457.922.779 1.687.982.327.084.625.125.636.125l.344.045.615-2.328-.443-.062c-.002.001-.129-.014-.262-.05zm.907 2.739l3.33-9.737 2.455.842-3.33 9.738zm4.52-13.299l2.474.846-.854 2.509-2.472-.843zm7.396 6.695a6.56 6.56 0 0 0-2.738-.607c-.707 0-1.168.121-1.189.125l-.32.086.176 2.309.451-.102c.004 0 .37-.084.887-.084.606 0 1.15.111 1.615.324.49.227.809.508.951.836s.118.719-.06 1.189l-.006-.002c-.581-.27-2.347-1.09-3.976-1.09-1.44 0-2.504.645-3.066 1.859-.422.912-.425 1.852-.004 2.713.368.758 1.033 1.389 1.879 1.781.525.242 1.065.367 1.602.367a3.56 3.56 0 0 0 1.203-.209l-.339.738 2.234 1.037 2.695-5.807c1.105-2.371.376-4.363-1.995-5.463zm-1.113 6.047c-.405.791-1.289 1.561-2.268 1.561-.246 0-.485-.051-.709-.154-.859-.398-1.006-1.09-.77-1.596.194-.418.543-.613 1.101-.613.809 0 1.806.414 2.588.775l.058.027zm13.883 2.629c-.124-.916-.698-1.719-1.705-2.393-.749-.494-1.56-.746-2.404-.746-.342 0-.654.041-.931.104l.599-.902-2.114-1.404-5.691 8.576 2.16 1.438 2.682-4.037c.271-.41.51-.693.757-.902.532-.453 1.188-.707 1.841-.707a2.6 2.6 0 0 1 1.445.443c.854.564.865 1.199.056 2.424l-3.353 5.051 2.164 1.436 3.579-5.396c.735-1.112 1.035-2.089.915-2.985zm1.614 10.965c-.612-.557-.957-1.285-.977-2.057-.022-.764.278-1.525.845-2.148.614-.67 1.401-1.043 2.216-1.043.698 0 1.358.266 1.914.773a3.43 3.43 0 0 1 1.063 2.268l.001.502 2.269-.561.012-.299c.004-.084.055-2.02-1.803-3.711-1.071-.979-2.346-1.49-3.686-1.49-1.484 0-2.885.641-3.945 1.805-1.008 1.105-1.521 2.479-1.455 3.865.068 1.398.729 2.736 1.857 3.762 1.507 1.369 3.139 1.52 3.772 1.52.204 0 .327-.016.343-.018l.271-.033.556-2.277-.552.051c-.045.001-1.564.124-2.701-.909zm12.96 1.662c-1.002-1.23-2.372-1.904-3.854-1.904-1.227 0-2.446.467-3.53 1.35-1.146.938-1.864 2.207-2.015 3.574-.154 1.395.289 2.809 1.25 3.986 1.505 1.846 3.527 2.102 3.612 2.109l.301.035.864-2.176-.506-.066c-.016-.002-1.451-.199-2.363-1.316-.734-.902-1.117-2.355.047-3.645l4.283 5.252.299-.197.68-.48c1.031-.844 1.717-1.92 1.921-3.027.223-1.22-.12-2.429-.989-3.495zm-1.863 3.834l-2.577-3.16c.989-.383 2.006-.115 2.682.709.633.779.586 1.674-.105 2.451z"/><path d="M112.485 131.226l15.221.202 5.524.245.971.072c4.739.351 17.326 1.282 23.373 2.154 3.236.467 6.283.965 9.176 1.503-8.491-6.531-19.122-10.417-30.66-10.417-8.804 0-17.078 2.263-24.278 6.234l.673.007zm53.9 42.171l-1.353-.296c-9.333-2.011-19.23-3.467-29.415-4.33-6.584-.557-13.474-.84-20.48-.84-2.706 0-5.49.042-8.273.125l-3.759.105-14.054.559-2.904.201c-.268 2.104-.406 4.248-.406 6.424 0 3.002.264 5.943.768 8.8 9.348 3.582 19.496 5.548 30.103 5.548 18.623.001 35.831-6.053 49.773-16.296zm4.358 1.011a87.22 87.22 0 0 1-54.131 18.723c-10.252 0-20.09-1.766-29.232-5.004.641 2.451 1.462 4.829 2.449 7.119l3.472-1.665 6.686 9.538 9.436-6.83 8.281 8.191 8.063-8.404 9.611 6.58 6.434-9.709 10.631 4.757 4.598-10.703 11.309 2.782 2.613-11.352 11.624.718.063-1.351c-3.624-1.214-7.538-2.328-11.907-3.39zM119.372 42.873c0-7.654-1.569-14.94-4.4-21.559-39.954.764-73.095 29.366-80.832 67.226 8.699 5.804 19.149 9.189 30.39 9.189 30.29 0 54.842-24.559 54.842-54.856zm-5.988-24.951A54.99 54.99 0 0 0 106.021 7l-7.07 8.833-10.161-5.691-5.539 10.248-11.014-3.785-3.62 11.071-11.513-1.757-1.585 11.541-11.642.327.5 11.638-11.396 2.401 2.57 11.362-10.784 4.397 4.557 10.721-4.225 2.688c1.865 1.929 3.87 3.722 5.999 5.361 8.503-38.182 41.907-66.97 82.286-68.433z" opacity=".3"/><path d="M110.607 131.209l.592.003 1.285.014 15.221.202 5.524.245.971.072c4.739.351 17.326 1.282 23.373 2.154l.412.061c6.859-8.886 10.943-20.026 10.943-32.122 0-29.055-23.548-52.608-52.595-52.608s-52.595 23.554-52.595 52.608c0 11.938 3.978 22.947 10.678 31.775 7.502-.948 14.759-1.465 18.735-1.703 5.646-.337 13.517-.701 17.456-.701z" opacity=".2"/><path d="M181.847 147.71l-7.358-1.496c-.857-.203-1.039.2-1.062.807-.021.585-.769 1.504.463 1.648.936.104.991.417.818 1.256l-2.79 14.083c-.221 1.095.065 1.909 1.171 2.121 2.325.454 4.617 1.132 7.316 1.173.399-.041 1.109-.041 1.792-.188 4.562-.975 7.475-5.019 7.475-10.328 0-4.586-2.986-8.065-7.825-9.076zm3.688 13.564c-1.167 2.215-2.99 3.373-5.506 3.441-1.467.042-2.871-.325-4.295-.592-.699-.135-.814-.441-.68-1.105l2.501-12.798c.123-.651.459-.776 1.019-.647 1.154.267 2.333.453 3.457.811 3.005.955 4.648 3.308 4.596 6.455-.026 1.562-.358 3.047-1.092 4.435zm-85.684-4.039c-.594.043-.794-.451-1.044-.865-1.03-1.682-1.869-3.472-3.053-5.064 2.522-1.451 3.453-3.662 2.795-6.597-.572-2.556-2.365-4.228-5.137-4.269-2.979-.041-5.972.197-8.945.448-1.127.097-.355 1.117-.48 1.698-.117.549.057.975.764.78.98-.269 1.09.229 1.129 1.071l.812 14.879c.051 1.086.389 1.443 1.426 1.145.205-.062.439-.043.658-.027.752.047.91-.243.836-1.01-.189-1.965-.246-3.947-.334-5.924-.014-.322-.168-.719.229-.954 1.02-.61 3.728.05 4.344 1.087.873 1.473 1.766 2.938 2.561 4.454.697 1.325 1.665 2.011 3.186 1.745.524-.094 1.428.3 1.273-.771-.097-.691.619-1.947-1.02-1.826zm-7.28-7.387c-.878.065-1.755.118-2.628.221-.688.085-.933-.179-.948-.864-.034-1.448-.134-2.896-.214-4.441-.439-1.309.169-1.835 1.535-1.773.658.031 1.32-.053 1.979-.062 2.15-.024 3.414 1.198 3.524 3.396.103 1.999-1.155 3.361-3.248 3.523zm75.137-4.74l-10.159-1.578c-.789-.137-1.108.15-1.08.826.021.607-.704 1.621.648 1.672.926.031.886.459.773 1.18l-2.215 14.197c-.2 1.311.247 1.926 1.527 2.131l7.166 1.088c3.359.463 3.363.447 3.844-2.812.01-.045.016-.09.025-.129.188-.69-.15-1.117-.781-.965-.611.145-1.6-1.041-1.845.475-.093.578-.188 1.131-1.054.979-1.644-.294-3.299-.523-4.95-.756-.726-.106-.954-.49-.834-1.189.251-1.473.513-2.941.698-4.425.086-.694.391-.728.963-.624 1.688.287 3.405.437 5.072.812 1.475.333.865-.863 1.1-1.366.267-.579.14-1.04-.725-1.131-1.66-.173-3.296-.551-4.955-.726-.795-.08-.957-.39-.837-1.086l.671-4.3c.082-.599.294-.812.941-.681 1.334.272 2.678.508 4.029.658.803.088 1.271.287 1.021 1.199-.191.691.133.906.797.99 1.692.215 1.689.25 1.979-1.455.059-.347.081-.7.121-1.049.213-1.511-.844-1.762-1.94-1.935zm-86.076 11.553c-.605.248-1.937-.546-1.646 1.07.131.728-.139 1.031-.885 1.111-1.66.18-3.312.434-4.965.67-.591.083-.919-.123-.991-.74l-.568-4.449c-.122-.787.222-.998.912-1.068 1.617-.168 3.225-.428 4.846-.563 1.029-.085.943-.685.812-1.37-.124-.649-.011-1.424-1.173-1.189-1.591.329-3.223.455-4.826.715-.762.127-1.09-.04-1.152-.885-.109-1.444-.332-2.885-.569-4.314-.101-.613.132-.779.67-.846a107.97 107.97 0 0 0 4.053-.537c.817-.124 1.372.008 1.442.973.018.264-.042.58.43.672 1.433.277 2.203-.357 2.031-1.739-.021-.175-.027-.354-.046-.528-.19-1.82-.62-2.23-2.457-2.019l-10.468 1.33c-1.23.155-.47 1.002-.514 1.528-.039.461-.112 1.237.771.957 1.098-.353 1.219.225 1.327 1.096l1.835 14.129c.133 1.025.623 1.615 2.08 1.562l7.22-.986c3.24-.469 3.227-.479 2.843-3.716-.074-.659-.214-1.189-1.012-.864zm-17.416 1.736c-.507.832-1.178 1.527-1.9 2.168-2.491 2.209-5.906 2.594-8.554.982-2.931-1.775-4.43-5.514-3.583-8.941.713-2.898 3.43-5.025 6.772-5.09 1.555-.031 3.184.029 3.698 2.148.231.953 1.108.119 1.68.104.36-.01.896.056.869-.679-.063-1.765-.98-3.155-2.603-3.776-3.562-1.368-8.801-.013-11.233 2.904-3.591 4.312-3.078 10.705 1.173 14.634 3.834 3.538 10.11 3.214 14.075-.735 1.954-1.952 1.941-2.092-.394-3.719zm77.546-16.712l-9.455-.857c-1.122-.123-1.035.535-1.146 1.219-.108.707-.196 1.363.822 1.323.77-.031.914.313.851 1.03l-1.377 14.973c-.182 1.573.732 1.26 1.551 1.463 1.121.284 1.305-.323 1.371-1.217l.51-6.045c.051-.797.209-1.125 1.152-.979 1.604.252 3.239.296 4.861.418 1.231.094.761-.918.915-1.486.161-.586.021-.944-.753-.982-1.665-.081-3.324-.331-4.987-.428-.702-.04-.906-.259-.825-.938.133-1.179.158-2.371.311-3.549.295-2.301-.154-1.992 2.227-1.76.742.071 1.489.125 2.236.154.74.027 1.169.29 1.047 1.121-.048.324-.18.696.271.908 1.243.596 2.309-.002 2.372-1.345.008-.174 0-.354 0-.527.118-1.943-.16-2.327-1.954-2.496zm-23.377 1.423c.036-.301.012-.615.008-.924-.016-1.892-.262-2.146-2.123-2.158l-11.479-.047c-3.488-.01-3.563.076-3.362 3.525.002.044.006.088 0 .133-.086.658.344.779.806.653.584-.161 1.653.581 1.686-.564.038-1.249.648-1.337 1.587-1.276.658.039 1.324.051 1.979-.005.807-.073 1.116.206 1.031 1.03-.274 2.68-.034 5.367-.186 9.226l-.011 5.948c-.008.737.022 1.375 1.013 1.162.725-.158 1.916.658 1.91-1.066l.124-13.586c.025-2.977.014-2.977 3.055-2.658.089.01.174.051.258.043.842-.081 1.235.264 1.125 1.135-.032.257-.032.612.276.669.688.13 1.432.222 2.076-.036.466-.182.18-.786.227-1.204zm8.689-2.562c-1.624-.014-3.248-.125-4.869-.233-.605-.042-1.104-.018-.945.773.125.638-.641 1.792.813 1.729.992-.04 1.023.46.979 1.194l-.675 12.236c-.041.955-.066 1.51-1.295 1.363-1.216-.146-.552.998-.758 1.527-.158.396-.195.949.615.969 1.707.036 3.421.129 5.128.259 1.22.091.69-.864.833-1.362.128-.457.298-1.189-.57-1.142-1.204.069-1.354-.537-1.188-1.516.077-.47.012-.964.012-1.448h.044l.527-10.666c.034-.916.133-1.403 1.254-1.164 1.007.215.818-.682.827-1.236.01-.524.368-1.275-.732-1.283zm25.557 2.394c-1.613-.176-3.241-.313-4.842-.58-.861-.143-1.125.172-1.117.93.006.661-.482 1.585.854 1.547.486-.016.93.042.829.82l-1.543 12.969c-.097.877-.477 1.113-1.277.91-1.212-.307-.825.736-.945 1.234-.104.457-.413 1.145.609 1.221 1.488.107 2.966.35 4.449.535 0-.008.002-.019.004-.026.174.019.359.011.525.062.736.221 1.041-.156.914-.797-.115-.568.828-1.648-.641-1.635-.993.008-1.022-.525-.93-1.272l1.481-12.312c.106-.955.3-1.465 1.378-1.141.89.267.849-.48.799-.939-.057-.523.661-1.393-.547-1.526zm2.414-61.019c-1.713-.872-3.767-.991-5.549-.991h-13.617v5.079h2.501v30.261h5.702v-12.75h5.504c1.451 0 3.159-.091 4.833-.765 3.767-1.447 6.2-5.609 6.2-10.602-.001-4.69-2.143-8.615-5.574-10.232zm-2.844 15.669c-.92.417-1.915.612-3.137.612h-4.983V86.249h5.025c1.449 0 2.581.242 3.376.726 1.54.899 2.387 2.739 2.387 5.18.001 2.653-.954 4.586-2.668 5.435zm-26.378 1.01l-.451-.333c-1.694-1.18-3.559-2.009-5.44-2.824-1.678-.727-3.398-1.383-4.862-2.514-2.122-1.634-1.89-4.35.512-5.53 2.038-.997 4.128-.933 6.158.114.738.38 1.325.955 1.224 1.844-.148 1.308.405 1.723 1.625 1.55.43-.062.872-.013 1.309-.013h2.093c.419 0 .819-.042.835-.587.083-3.128.073-5.404-2.711-7.295-4.122-2.797-10.899-2.778-14.967.076-5.159 3.609-5.337 10.776-.37 14.641a16.07 16.07 0 0 0 1.229.871c1.537 1 3.372 1.755 4.956 2.437 3.336 1.473 6.217 2.733 6.217 5.317 0 2.622-2.317 3.812-4.613 3.812-4.327 0-7.523-3.192-7.555-3.2l-.775-.809-3.69 4.972.521.585c.167.165 4.208 4.555 11.405 4.555 6.587 0 11.191-4.124 11.191-10.066-.002-3.643-1.577-5.952-3.841-7.603zm-25.202 7.945c-.42-.647-.699-.638-1.269-.12-2.631 2.4-5.739 3.835-9.318 3.884-8.392.114-12.911-8.533-10.951-15.159.362-1.234.148-.835.362-1.234 1.713-4.198 6.84-7.283 11.317-6.659 2.004.279 3.764.936 5.326 2.185.598.612.36 1.387.385 2.104.019.545.111.933.78.923h4.294c.541.005.805-.222.788-.775-.053-1.812.224-3.649-.457-5.409-1.042-1.879-2.681-3.03-4.625-3.824a20.37 20.37 0 0 0-9.552-1.455c-4.892.412-8.898 2.508-11.994 6.32-2.118 2.605-3.127 5.671-3.618 8.94-.007 1.136-.086 2.271-.01 3.4.328 4.747 1.997 8.964 5.595 12.139 6.805 6.004 17.441 5.896 24.308-.088 1.5-1.309 1.5-1.309.34-2.859-.576-.765-1.183-1.511-1.701-2.313z"/></g></svg>