<svg xmlns="http://www.w3.org/2000/svg" width="234" height="212"  xmlns:v="https://vecta.io/nano"><path fill="#fff" d="M221.078 157.486l12.905-18.074s-22.067.001-25.029-.003l6.42-3.318-5.749-10.737 9.646-7.433-7.574-9.537 8.164-9.037-9.154-8.031 6.42-10.35-10.441-6.268 4.469-11.33-11.392-4.302 2.375-11.946-11.978-2.197.205-12.178-12.178-.023-1.973-12.02-11.985 2.152-4.087-11.475-11.409 4.258-6.069-10.559-10.465 6.227L124.342 2l-9.185 7.996-9.392-7.753-7.61 9.508-10.625-5.95-5.79 10.715-11.518-3.958-3.784 11.577L54.4 22.298l-1.657 12.066-12.173.342.523 12.168-11.916 2.512 2.688 11.879-11.276 4.599 4.765 11.21-10.274 6.537 6.688 10.179-8.941 8.268 8.397 8.82-7.32 9.732 9.837 7.178-5.466 10.883 1.533.743c-.833.001-19.808-.002-19.808-.002l13.236 17.133L.414 174.442l28.519-.005 1.984-.064a32.45 32.45 0 0 0 3.575 4.085c.773.748 2.067 2.001 4.004 2.001 1.24 0 2.258-.504 3.196-1.021 2.233-1.231 4.562-2.341 6.96-3.316l.598 8.178 12.13-1.068 3.042 11.794 11.745-3.218 5.099 11.061 10.98-5.264 6.991 9.973 9.865-7.14 8.659 8.563 8.432-8.787 10.049 6.879 6.728-10.152 11.116 4.975 4.807-11.19 11.824 2.909 2.732-11.869 12.154.75.181-3.895c2.096.771 4.101 1.583 6.054 2.448 1.882.835 3.353 1.351 4.874 1.351 2.793 0 4.617-1.729 6.393-3.656 1.245-1.35 2.367-2.787 3.371-4.32l27.524.019-12.922-16.977z"/><path fill="#503796" d="M166.389 173.397l-1.357-.296c-9.336-2.011-19.226-3.468-29.413-4.331-6.585-.556-13.476-.838-20.482-.838-2.705 0-5.489.042-8.272.123l-3.76.105-14.054.56c-7.452.484-15.83 1.241-24.413 3.011 14.312 11.254 32.36 17.959 51.975 17.959a83.76 83.76 0 0 0 49.776-16.293zm-49.776 19.735c-21.406 0-41.018-7.684-56.234-20.439-2.309.568-4.625 1.221-6.932 1.965l-1.677.567.411 5.63 11.601-1.02 2.911 11.279 11.232-3.079 4.875 10.581 10.503-5.037 6.687 9.541 9.436-6.829 8.277 8.189 8.063-8.405 9.612 6.58 6.435-9.71 10.631 4.759 4.598-10.703 11.311 2.782 2.612-11.353 11.622.719.064-1.354c-3.624-1.212-7.538-2.327-11.907-3.387-14.902 11.73-33.698 18.724-54.131 18.724zm-91.238-82.496l-7.002 9.307 9.409 6.867-5.23 10.409 10.485 5.073-1.146 3.898c1.858-1.184 3.744-2.189 5.578-3.062-5.43-11.403-8.471-24.164-8.471-37.635 0-48.402 39.227-87.641 87.615-87.641s87.614 39.236 87.614 87.641c0 13.795-3.191 26.846-8.868 38.457 2.497 1.136 5.248 2.555 8 4.346l-2.643-8.199 10.345-5.349-5.499-10.269 9.227-7.107-7.243-9.121 7.807-8.643-8.756-7.681 6.14-9.899-9.989-5.994 4.276-10.836-10.896-4.115 2.269-11.424-11.455-2.104.195-11.646-11.646-.021-1.887-11.496-11.46 2.061-3.909-10.975-10.91 4.07-5.807-10.098-10.007 5.955L124 6.507l-8.787 7.646-8.984-7.414-7.277 9.094-10.165-5.693-5.537 10.248-11.011-3.785-3.621 11.072-11.513-1.758-1.588 11.541-11.64.326.5 11.639-11.396 2.402 2.569 11.359-10.783 4.4 4.557 10.721-9.826 6.252 6.398 9.736-8.554 7.907 8.033 8.436zm91.238-89.344c-46.492 0-84.181 37.697-84.181 84.201 0 12.977 2.938 25.266 8.181 36.242l2.638-1.039c9.801-3.717 19.832-5.469 27.477-6.584 8.73-1.273 17.797-1.928 22.425-2.203 5.645-.337 13.518-.699 17.455-.699l.592.003 1.285.013 15.223.201c2.163.031 2.742.037 5.526.244l.969.072c4.738.352 17.327 1.283 23.372 2.154 13.931 2.012 24.388 4.602 33.908 8.404l.713.291c5.503-11.193 8.598-23.782 8.598-37.098-.001-46.505-37.69-84.202-84.181-84.202zm91.852 135.527c-5.17-5.255-11.516-8.635-18.256-11.325-10.658-4.257-21.814-6.562-33.125-8.194-6.42-.924-20.66-1.943-24.109-2.199s-3.283-.197-7.668-.271l-14.145-.182c-3.388-.037-11.279.302-17.805.692s-14.789 1.104-22.134 2.173c-9.114 1.331-18.117 3.123-26.755 6.396-6.488 2.458-12.631 5.533-17.486 10.714-.714.759-.834 1.533-.67 2.362a30.72 30.72 0 0 0 2.169 6.794c2.078 4.569 4.569 8.866 8.219 12.4 1.402 1.36 1.784 1.406 3.463.481 3.904-2.156 7.993-3.906 12.228-5.273 11.841-3.826 24.088-5.291 36.44-6.095 5.971-.39 11.953-.491 17.933-.669 9.734-.291 19.45-.099 29.147.725 10.033.85 19.993 2.27 29.847 4.395 9.367 2.021 18.574 4.529 27.368 8.426 3.839 1.7 4.8 1.537 7.651-1.554 4.696-5.099 7.15-11.285 8.305-18.044.119-.706-.101-1.23-.617-1.752zm-185.263.782c-.487-2.443.529-4.148 1.466-5.15.826-.879 1.684-1.697 2.564-2.467.041-.062.096-.123.17-.17.043-.027.081-.055.124-.088l.743-.614c1.227-1.271 1.359-2.952 1.871-4.528.083-.259.018-.543-.276-.665-1.114-.466-2.048-1.347-3.371-1.344l-19.616.008c0 .532.279.804.52 1.12l9.272 12.081c.466.593.337.954.026 1.385l-5.15 7.091-4.984 7.011h22.272c-1.039-1.709-2.13-3.739-3.239-6.175-1.067-2.345-1.87-4.866-2.392-7.495zm194.595.808c-.307-.406-.785-.766-.254-1.474 2.093-2.8 4.104-5.655 6.133-8.499l4.162-5.85c-7.797 0-15.32.009-22.843-.013-.918-.003-.991.22-.675 1.056.479 1.278.65 2.672 1.147 3.941.475 1.217.526 2.659 1.503 3.649a41.51 41.51 0 0 1 3.753 3.376c1.588 1.608 1.681 3.34 1.481 4.504-.777 4.569-2.068 8.607-3.902 12.188h19.324l-2.498-3.301-7.331-9.577z"/><g fill="#fff"><path d="M66.85 53.077c-1.148 0-2.292.496-3.305.938-.833.361-1.621.703-2.247.703-.342 0-.61-.102-.84-.322-.625-.592-.514-1.691.251-2.496 1.023-1.078 2.533-1.176 2.546-1.176l.517-.029-.787-2.432-.288.002c-.083 0-2.039.033-3.812 1.896-1.819 1.918-1.914 4.574-.223 6.182.695.66 1.483.982 2.414.982h0c1.106 0 2.189-.453 3.238-.893.867-.359 1.688-.701 2.353-.701.39 0 .694.113.954.363.78.74.48 1.752-.159 2.43-1.208 1.271-3.038 1.318-3.055 1.318l-.466.006.442 2.5.362.012c.26 0 2.604-.061 4.518-2.076 1.818-1.912 1.881-4.498.146-6.148-.75-.713-1.586-1.059-2.559-1.059zm10.001-4.078c0 .018-.131 1.559-1.346 2.508-.541.424-1.165.648-1.804.648-.893 0-1.758-.445-2.363-1.221-.518-.664-.761-1.443-.682-2.193.079-.744.473-1.432 1.108-1.928.765-.598 1.621-.686 2.062-.686a2.51 2.51 0 0 1 .349.021l.496.08-.172-2.33-.291-.062c-.025-.004-.258-.051-.631-.051-.667 0-1.989.156-3.333 1.207-1.198.941-1.954 2.229-2.124 3.625-.167 1.385.241 2.787 1.152 3.953 1.053 1.346 2.572 2.117 4.167 2.117 1.203 0 2.385-.428 3.416-1.236 2.053-1.605 2.167-3.713 2.173-3.801l.012-.275-2.15-.932-.039.556zm3.29-5.1c-.299-1.201.068-2.314.936-2.836.195-.117.394-.182.394-.182l.474-.152-1.353-2.266-.312.125c-.01.002-.245.094-.479.234-.863.516-1.404 1.393-1.555 2.42l-.599-.998-2.176 1.303 5.279 8.832 2.228-1.334-2.198-3.676c-.319-.53-.528-1.011-.639-1.47zm8.049-8.91l1.923 4.445c.342.793.424 1.627.231 2.352-.141.527-.495 1.238-1.398 1.627-.93.4-1.44.119-2.038-1.264l-2.406-5.566-2.383 1.029 2.57 5.945c.766 1.77 1.848 2.668 3.219 2.668.521 0 1.093-.133 1.697-.393a4.26 4.26 0 0 0 2.297-2.398l.424.979 2.33-1.01-4.081-9.445-2.385 1.031zm16.847-4.935c-1.389.291-2.367 1.283-2.853 2.291-.721-.965-1.81-1.318-3.221-1.023-1.112.232-1.988.984-2.517 1.828l-.213-1.027-2.486.52 2.103 10.074 2.54-.533-.965-4.631c-.075-.359-.15-.773-.137-1.135.054-1.047.559-2.363 1.811-2.625.898-.189 1.312.213 1.621 1.691l1.242 5.955 2.542-.531-.969-4.631c-.097-.473-.142-.869-.132-1.215.051-1.09.618-2.299 1.771-2.539a1.79 1.79 0 0 1 .375-.041c.551 0 .98.293 1.279 1.727l1.242 5.955 2.541-.531-1.324-6.34c-.545-2.612-1.979-3.714-4.25-3.239zm15.869-4.203l-5.956 13.666 2.735.189 1.56-3.711 4.368.301 1.053 3.893 2.752.188-4.026-14.357-2.486-.169zm2.11 8.066l-2.854-.195 1.537-3.588.188-.492.117.518 1.012 3.757zm8.025 5.041c-.27-.051-.349-.129-.389-.195-.07-.107-.126-.342-.027-.855l2.014-10.549-2.547-.486-2.075 10.861c-.224 1.164-.039 2.068.544 2.697.401.43.975.709 1.752.859.332.064.629.08.645.082l.343.018.454-2.367-.45-.029c-.001-.001-.128-.011-.264-.036zm4.687 1.193c-.265-.072-.337-.154-.376-.225-.056-.111-.1-.35.037-.855l2.761-10.379-2.508-.668-2.845 10.686c-.303 1.145-.186 2.064.354 2.729.372.457.922.779 1.687.982.327.084.625.125.636.125l.344.045.615-2.328-.443-.062c-.002.001-.129-.014-.262-.05zm.907 2.739l3.33-9.737 2.455.842-3.33 9.738zm4.52-13.299l2.474.846-.854 2.509-2.472-.843zm7.396 6.695a6.56 6.56 0 0 0-2.738-.607c-.707 0-1.168.121-1.189.125l-.32.086.176 2.309.451-.102c.004 0 .37-.084.887-.084.606 0 1.15.111 1.615.324.49.227.809.508.951.836s.118.719-.06 1.189l-.006-.002c-.581-.27-2.347-1.09-3.976-1.09-1.44 0-2.504.645-3.066 1.859-.422.912-.425 1.852-.004 2.713.368.758 1.033 1.389 1.879 1.781.525.242 1.065.367 1.602.367a3.56 3.56 0 0 0 1.203-.209l-.339.738 2.234 1.037 2.695-5.807c1.105-2.371.376-4.363-1.995-5.463zm-1.113 6.047c-.405.791-1.289 1.561-2.268 1.561-.246 0-.485-.051-.709-.154-.859-.398-1.006-1.09-.77-1.596.194-.418.543-.613 1.101-.613.809 0 1.806.414 2.588.775l.058.027zm13.883 2.629c-.124-.916-.698-1.719-1.705-2.393-.749-.494-1.56-.746-2.404-.746-.342 0-.654.041-.931.104l.599-.902-2.114-1.404-5.691 8.576 2.16 1.438 2.682-4.037c.271-.41.51-.693.757-.902.532-.453 1.188-.707 1.841-.707a2.6 2.6 0 0 1 1.445.443c.854.564.865 1.199.056 2.424l-3.353 5.051 2.164 1.436 3.579-5.396c.735-1.112 1.035-2.089.915-2.985zm1.614 10.965c-.612-.557-.957-1.285-.977-2.057-.022-.764.278-1.525.845-2.148.614-.67 1.401-1.043 2.216-1.043.698 0 1.358.266 1.914.773a3.43 3.43 0 0 1 1.063 2.268l.001.502 2.269-.561.012-.299c.004-.084.055-2.02-1.803-3.711-1.071-.979-2.346-1.49-3.686-1.49-1.484 0-2.885.641-3.945 1.805-1.008 1.105-1.521 2.479-1.455 3.865.068 1.398.729 2.736 1.857 3.762 1.507 1.369 3.139 1.52 3.772 1.52.204 0 .327-.016.343-.018l.271-.033.556-2.277-.552.051c-.045.001-1.564.124-2.701-.909zm12.96 1.662c-1.002-1.23-2.372-1.904-3.854-1.904-1.227 0-2.446.467-3.53 1.35-1.146.938-1.864 2.207-2.015 3.574-.154 1.395.289 2.809 1.25 3.986 1.505 1.846 3.527 2.102 3.612 2.109l.301.035.864-2.176-.506-.066c-.016-.002-1.451-.199-2.363-1.316-.734-.902-1.117-2.355.047-3.645l4.283 5.252.299-.197.68-.48c1.031-.844 1.717-1.92 1.921-3.027.223-1.22-.12-2.429-.989-3.495zm-1.863 3.834l-2.577-3.16c.989-.383 2.006-.115 2.682.709.633.779.586 1.674-.105 2.451z"/><path d="M112.485 131.226l15.221.202 5.524.245.971.072c4.739.351 17.326 1.282 23.373 2.154 3.236.467 6.283.965 9.176 1.503-8.491-6.531-19.122-10.417-30.66-10.417-8.804 0-17.078 2.263-24.278 6.234l.673.007zm53.9 42.171l-1.353-.296c-9.333-2.011-19.23-3.467-29.415-4.33-6.584-.557-13.474-.84-20.48-.84-2.706 0-5.49.042-8.273.125l-3.759.105-14.054.559-2.904.201c-.268 2.104-.406 4.248-.406 6.424 0 3.002.264 5.943.768 8.8 9.348 3.582 19.496 5.548 30.103 5.548 18.623.001 35.831-6.053 49.773-16.296zm4.358 1.011a87.22 87.22 0 0 1-54.131 18.723c-10.252 0-20.09-1.766-29.232-5.004.641 2.451 1.462 4.829 2.449 7.119l3.472-1.665 6.686 9.538 9.436-6.83 8.281 8.191 8.063-8.404 9.611 6.58 6.434-9.709 10.631 4.757 4.598-10.703 11.309 2.782 2.613-11.352 11.624.718.063-1.351c-3.624-1.214-7.538-2.328-11.907-3.39zM119.372 42.873c0-7.654-1.569-14.94-4.4-21.559-39.954.764-73.095 29.366-80.832 67.226 8.699 5.804 19.149 9.189 30.39 9.189 30.29 0 54.842-24.559 54.842-54.856zm-5.988-24.951A54.99 54.99 0 0 0 106.021 7l-7.07 8.833-10.161-5.691-5.539 10.248-11.014-3.785-3.62 11.071-11.513-1.757-1.585 11.541-11.642.327.5 11.638-11.396 2.401 2.57 11.362-10.784 4.397 4.557 10.721-4.225 2.688c1.865 1.929 3.87 3.722 5.999 5.361 8.503-38.182 41.907-66.97 82.286-68.433z" opacity=".3"/><path d="M110.607 131.209l.592.003 1.285.014 15.221.202 5.524.245.971.072c4.739.351 17.326 1.282 23.373 2.154l.412.061c6.859-8.886 10.943-20.026 10.943-32.122 0-29.055-23.548-52.608-52.595-52.608s-52.595 23.554-52.595 52.608c0 11.938 3.978 22.947 10.678 31.775 7.502-.948 14.759-1.465 18.735-1.703 5.646-.337 13.517-.701 17.456-.701z" opacity=".2"/><path d="M127.28 143.476c.028-.253.008-.513.005-.771-.014-1.576-.22-1.789-1.768-1.797l-9.573-.042c-2.908-.007-2.97.063-2.803 2.939.002.037.005.074 0 .11-.073.549.287.652.672.544.485-.135 1.377.485 1.405-.469.031-1.041.54-1.113 1.323-1.064.548.034 1.104.046 1.649-.003.673-.061.932.174.861.861-.229 2.231-.027 4.472-.155 7.689l-.008 4.958c-.007.617.018 1.149.843.97.605-.132 1.598.547 1.593-.887l.104-11.33c.021-2.482.01-2.482 2.545-2.215.073.008.146.042.217.035.703-.068 1.03.218.937.947-.027.213-.026.507.23.556.574.111 1.193.188 1.73-.027.392-.155.155-.657.193-1.004zM57.868 161.61c-.492.138-.744-.245-1.026-.55l-3.425-3.746c1.878-1.649 2.29-3.667 1.24-6.028-.914-2.053-2.706-3.157-5.045-2.723-2.516.467-4.994 1.173-7.456 1.889-.932.272-.111.999-.117 1.51-.005.48.213.809.774.528.781-.392.958.01 1.134.71l3.196 12.386c.227.907.572 1.152 1.395.724.163-.084.362-.107.548-.133.64-.088.725-.359.534-.99l-1.284-4.93c-.066-.271-.262-.577.032-.845.755-.687 3.146-.587 3.84.183l2.909 3.315c.81.999 1.74 1.41 2.977.928.426-.165 1.252.013.943-.862-.201-.567.191-1.745-1.169-1.366zm-7.377-4.988l-2.174.631c-.565.185-.816.008-.944-.566l-.93-3.703c-.591-1.026-.168-1.572.995-1.752.558-.085 1.101-.268 1.655-.386 1.807-.385 3.076.429 3.54 2.26.421 1.668-.406 3.025-2.142 3.516zm105.821 1.804c-.508-.052-.603-.501-.753-.888l-1.817-4.74c2.352-.847 3.472-2.575 3.359-5.157-.099-2.244-1.364-3.928-3.699-4.38-2.513-.487-5.077-.737-7.629-.971-.967-.088-.469.889-.662 1.362-.181.445-.096.831.528.774.87-.079.887.36.795 1.077l-1.556 12.697c-.122.927.11 1.281 1.033 1.183.182-.019.376.032.559.077.628.152.806-.069.859-.726l.609-5.058c.037-.276-.033-.632.338-.774.955-.363 3.142.605 3.507 1.576l1.494 4.149c.389 1.226 1.104 1.95 2.431 1.954.457.002 1.161.47 1.192-.457.02-.6.815-1.552-.588-1.698zm-5.04-7.342l-2.255-.208c-.594-.034-.762-.291-.672-.873l.489-3.787c-.174-1.17.418-1.524 1.565-1.266.551.125 1.124.154 1.682.247 1.823.304 2.705 1.525 2.467 3.399-.215 1.707-1.482 2.667-3.276 2.488zm-79.483 6.14c-.498.239-1.66-.357-1.331.988.147.604-.062.874-.687.979l-4.147.818c-.494.101-.78-.052-.873-.571l-.706-3.718c-.145-.656.136-.851.711-.946l4.053-.722c.862-.124.758-.625.612-1.199-.138-.542-.083-1.199-1.049-.938-1.323.357-2.689.547-4.028.851-.635.144-.918.019-1.016-.689-.167-1.211-.428-2.411-.7-3.604-.116-.508.073-.662.521-.743a90.75 90.75 0 0 0 3.386-.664c.681-.149 1.157-.064 1.264.745.029.223-.005.492.397.544 1.219.157 1.836-.414 1.622-1.568l-.065-.441c-.256-1.521-.637-1.847-2.173-1.574l-8.747 1.659c-1.029.194-.344.868-.354 1.312-.009.393-.032 1.05.698.768.907-.351 1.039.127 1.174.853l2.27 11.805c.165.858.608 1.33 1.833 1.208l6.03-1.2c2.705-.561 2.692-.57 2.203-3.275-.1-.554-.244-.991-.898-.678zm68.009-15.286l-8.879-.646c-1.043-.077-.556.75-.679 1.176-.109.377-.301 1.007.478.922.967-.106.97.39.915 1.125l-.841 11.992c-.062.871.246 1.441 1.461 1.639l6.135.392c2.757.154 2.748.141 2.971-2.598.046-.559.019-1.018-.695-.884-.542.103-1.512-.773-1.54.612-.012.621-.285.828-.915.77l-4.219-.277c-.502-.029-.74-.251-.696-.777l.274-3.774c.029-.671.35-.787.932-.731l4.102.345c.865.103.894-.409.9-1.001.006-.559.228-1.179-.773-1.176-1.37.005-2.739-.163-4.11-.214-.65-.024-.892-.219-.804-.927.15-1.213.207-2.44.25-3.663.019-.521.241-.621.695-.584l3.442.23c.697.031 1.135.236 1.03 1.045-.029.223-.132.475.244.628 1.138.466 1.881.073 1.97-1.099l.051-.442c.14-1.538-.144-1.95-1.699-2.083zm31.684 4.554l-8.734-1.725c-1.026-.204-.643.677-.817 1.084-.154.361-.422.963.361.974.973.013.916.505.771 1.229l-2.298 11.8c-.168.857.068 1.461 1.25 1.805l6.042 1.137c2.718.489 2.711.476 3.265-2.215.114-.549.143-1.009-.582-.962-.551.036-1.406-.951-1.603.419-.088.616-.384.787-1.002.652l-4.153-.79c-.496-.09-.704-.34-.596-.856l.732-3.713c.111-.662.444-.738 1.014-.612l4.03.843c.845.208.937-.297 1.015-.884.074-.554.371-1.143-.624-1.261-1.36-.163-2.699-.497-4.054-.714-.643-.103-.858-.326-.685-1.018.297-1.186.503-2.397.695-3.605.082-.515.315-.587.761-.496l3.389.648c.688.116 1.098.373.895 1.163-.056.218-.188.455.165.653 1.073.602 1.858.302 2.09-.85l.104-.434c.328-1.507.096-1.951-1.431-2.272zm-73.335 10.52c.056-.406.118-1.05-.621-.907-1.021.198-1.219-.303-1.194-1.156.012-.412-.102-.826-.158-1.239l.039-.006-.802-9.174c-.078-.787-.05-1.217.936-1.142.886.067.62-.68.562-1.154-.054-.447.167-1.129-.774-1.008l-4.189.371c-.521.037-.946.116-.718.772.185.532-.336 1.605.899 1.38.843-.153.928.273.977.905l.856 10.535c.077.82.122 1.298-.946 1.316-1.058.018-.355.915-.47 1.392-.087.36-.052.837.639.759a83.65 83.65 0 0 1 4.414-.38c1.052-.065.489-.82.55-1.264zm85.912-7.379l-6.041-1.738c-.702-.223-.882.099-.941.606-.056.484-.742 1.205.278 1.403.773.15.799.416.598 1.105l-3.264 11.57c-.256.898-.072 1.597.835 1.85 1.912.532 3.78 1.251 6.03 1.464.335-.006.931.042 1.51-.034 3.871-.511 6.571-3.693 6.924-8.125.306-3.83-1.956-6.933-5.929-8.101zm3.386 7.941c-.127 1.301-.502 2.521-1.206 3.629-1.122 1.771-2.723 2.617-4.827 2.506-1.227-.064-2.375-.463-3.546-.78-.576-.156-.649-.422-.494-.966l2.938-10.516c.147-.537.436-.619.894-.474.945.298 1.916.534 2.831.907 2.447.996 3.66 3.07 3.41 5.694zM89.054 150.6l-5.513.663.246 2.044 3.151-.379.24 1.992c.166 1.377-2.276 2.179-3.958 2.381a7.29 7.29 0 0 1-.876.054c-3.21 0-5.551-2.219-5.964-5.653-.219-1.822.162-3.431 1.102-4.652s2.383-1.982 4.171-2.197c.324-.039.653-.059.98-.059 1.364 0 3.002.385 3.133 1.469l.158 1.319 2.363-.284-.255-2.118c-.218-1.814-2.842-2.626-5.346-2.626a11.42 11.42 0 0 0-1.37.081c-2.446.295-4.546 1.41-5.912 3.139-1.351 1.71-1.938 3.953-1.654 6.314.535 4.448 3.984 7.555 8.387 7.555.39 0 .792-.024 1.192-.072 2.593-.312 6.591-1.761 6.284-4.318l-.559-4.653zm17.464-2.517l-.137-.047c-1.824-.627-3.265-1.123-3.315-2.712-.049-1.546 1.338-2.142 2.652-2.183.051-.002.102-.002.153-.002 1.241 0 2.511.424 2.537 1.235l.04 1.259 2.402-.076-.064-2.04c-.058-1.833-2.544-2.668-4.831-2.668a7.96 7.96 0 0 0-.309.005c-3.927.124-5.253 2.492-5.185 4.667.096 3.063 2.566 3.905 4.553 4.583l.358.126c1.884.663 3.512 1.235 3.565 2.918.023.736-.247 1.33-.802 1.765-.533.417-1.297.653-2.21.683l-.186.002c-1.454 0-2.944-.577-2.978-1.681l-.042-1.327-2.378.075.057 1.833c.074 2.345 2.812 3.412 5.326 3.412.091 0 .183-.001.273-.004 3.392-.106 5.61-2.125 5.519-5.022-.098-3.137-2.701-4.021-4.998-4.801zm-7.608-37.598l-4.846-8.435c-.224-.425-.487-.775-.739-1.052 4.065-1.511 6.455-5.136 6.455-9.923 0-4.678-2.347-8.156-6.443-9.539-1.906-.637-3.912-.762-6.528-.762H72.654v5.124h2.886v30.527h6.238v-13.833h3.382c1.859 0 2.251.315 2.988 1.543l5.291 9.368c1.272 2.229 2.177 2.922 5.356 2.922h3.605v-5.17h-1.712c-1.149 0-1.438-.186-1.778-.77zM87.975 97.229h-6.197V86.14h4.983c1.646 0 2.98.195 3.96.58 1.839.752 2.771 2.348 2.771 4.745 0 3.555-2.113 5.764-5.517 5.764zm36.433 13.831h-10.889v-9.922h12.13v-5.366h-12.13V86.14h10.065v2.393h5.607v-7.758h-24.859v5.124h2.946v30.527h22.737v-8.17h-5.607v2.804zm29.982-29.289c-1.729-.88-3.8-.996-5.595-.996h-13.742v5.124h2.522v30.527h5.752v-12.861h5.554c1.466 0 3.19-.092 4.876-.773 3.798-1.458 6.253-5.66 6.253-10.694.001-4.733-2.16-8.695-5.62-10.327zm-2.869 15.808c-.929.422-1.932.621-3.166.621h-5.028V86.14h5.074c1.46 0 2.603.244 3.407.729 1.551.907 2.405 2.762 2.405 5.229 0 2.676-.963 4.628-2.692 5.481z"/></g></svg>