<svg xmlns="http://www.w3.org/2000/svg" width="234" height="212"  xmlns:v="https://vecta.io/nano"><path fill="#fff" d="M217.788 127.005L234 94.495h-16.84c-.584-.927-1.02-1.848-1.147-2.742-.293-2.054.803-4.602 1.862-7.067 1.283-2.986 2.61-6.074 1.798-8.844-.831-2.833-3.649-4.736-6.375-6.575-2.191-1.479-4.458-3.009-5.294-4.839-.853-1.867-.526-4.608-.209-7.258.387-3.241.787-6.591-.787-9.037-1.586-2.464-4.814-3.49-7.936-4.482-2.531-.804-5.149-1.636-6.479-3.171-1.335-1.54-1.789-4.254-2.228-6.88-.54-3.227-1.097-6.563-3.305-8.479s-5.58-1.991-8.845-2.068c-2.664-.063-5.418-.128-7.137-1.236-1.7-1.095-2.893-3.563-4.046-5.951-1.428-2.956-2.905-6.011-5.578-7.235-.873-.399-1.853-.594-2.996-.594-1.92 0-4.014.562-6.038 1.106-2.624.704-5.414 1.362-7.232.831-1.919-.563-3.752-2.582-5.524-4.534-2.215-2.44-4.505-4.964-7.44-5.382-2.812-.395-5.699 1.343-8.461 3.032-2.297 1.405-4.673 2.857-6.762 2.857s-4.465-1.453-6.762-2.857c-2.761-1.688-5.653-3.427-8.461-3.032C98.842.476 96.551 3 94.336 5.439c-1.772 1.953-3.604 3.971-5.524 4.534-1.817.533-4.608-.126-7.231-.831-2.024-.544-4.118-1.106-6.038-1.106-1.143 0-2.124.194-2.997.594-2.673 1.223-4.15 4.279-5.578 7.234-1.153 2.387-2.346 4.856-4.046 5.951-1.718 1.107-4.473 1.172-7.137 1.236-3.266.077-6.643.157-8.845 2.068-2.208 1.915-2.765 5.251-3.305 8.478-.438 2.625-.892 5.34-2.227 6.88-1.33 1.534-3.948 2.367-6.48 3.171-3.122.993-6.35 2.019-7.936 4.482-1.575 2.446-1.174 5.797-.787 9.038.316 2.65.644 5.391-.209 7.257-.837 1.83-3.104 3.36-5.295 4.839-2.726 1.839-5.544 3.742-6.375 6.575-.812 2.771.515 5.858 1.798 8.845 1.059 2.465 2.154 5.013 1.861 7.067-.127.894-.562 1.815-1.147 2.742H0l15.803 32.511L0 159.517h25.863c.036 1.596.32 3.092 1.128 4.349 1.586 2.464 4.814 3.49 7.936 4.482 2.532.805 5.15 1.637 6.48 3.171 1.334 1.54 1.788 4.254 2.227 6.879.54 3.227 1.097 6.564 3.305 8.479s5.58 1.991 8.845 2.068c2.664.063 5.418.128 7.137 1.236 1.7 1.095 2.893 3.563 4.046 5.951 1.428 2.956 2.905 6.012 5.578 7.235.873.399 1.854.594 2.997.594 1.919 0 4.013-.562 6.037-1.106 2.624-.704 5.413-1.364 7.232-.831 1.919.563 3.752 2.582 5.524 4.534 2.215 2.44 4.506 4.964 7.441 5.382 2.803.397 5.699-1.343 8.46-3.032 2.297-1.404 4.673-2.857 6.763-2.857s4.465 1.453 6.763 2.857c2.485 1.52 5.055 3.091 7.614 3.091a6.15 6.15 0 0 0 .847-.059c2.935-.418 5.226-2.942 7.441-5.382 1.772-1.953 3.605-3.971 5.524-4.534 1.819-.533 4.607.127 7.231.831 2.024.544 4.118 1.106 6.038 1.106 1.143 0 2.123-.194 2.996-.594 2.673-1.223 4.15-4.279 5.578-7.235 1.154-2.387 2.347-4.856 4.046-5.951 1.718-1.107 4.473-1.172 7.137-1.236 3.266-.077 6.643-.157 8.846-2.068s2.765-5.252 3.305-8.479c.439-2.625.893-5.34 2.227-6.879s3.948-2.366 6.479-3.171c3.122-.992 6.351-2.019 7.937-4.483.809-1.256 1.092-2.753 1.128-4.35H234l-16.212-32.51z"/><path d="M215.999 127.891c-.281-.562-.281-1.223 0-1.785l14.769-29.607h-14.676c-1.023-1.428-1.837-2.903-2.059-4.459-.372-2.609.836-5.419 2.005-8.137 1.196-2.782 2.326-5.41 1.717-7.489-.628-2.14-3.143-3.837-5.574-5.478-2.42-1.633-4.924-3.322-5.994-5.663-1.087-2.377-.726-5.401-.377-8.325.345-2.888.702-5.875-.483-7.714-1.196-1.858-4.076-2.773-6.86-3.658-2.795-.888-5.686-1.807-7.385-3.766-1.704-1.964-2.205-4.96-2.689-7.858-.481-2.877-.979-5.852-2.643-7.295-1.659-1.438-4.67-1.51-7.582-1.579-2.94-.069-5.981-.142-8.172-1.553-2.173-1.399-3.49-4.125-4.764-6.76s-2.591-5.361-4.609-6.284c-.606-.277-1.314-.412-2.164-.412-1.656 0-3.62.527-5.52 1.038-2.039.547-4.147 1.113-6.092 1.113-.817 0-1.543-.097-2.221-.295-2.459-.721-4.484-2.951-6.442-5.107-1.977-2.177-4.021-4.428-6.242-4.745-2.156-.307-4.672 1.252-7.135 2.757-2.534 1.549-5.153 3.15-7.806 3.15s-5.272-1.601-7.805-3.149c-2.462-1.505-4.977-3.059-7.136-2.757-2.221.317-4.265 2.568-6.242 4.745-1.958 2.156-3.983 4.386-6.442 5.107-.678.199-1.404.295-2.221.295-1.945 0-4.053-.566-6.091-1.113-1.899-.51-3.863-1.037-5.519-1.037-.85 0-1.558.135-2.165.412-2.018.923-3.335 3.648-4.609 6.284s-2.591 5.361-4.764 6.76c-2.191 1.411-5.232 1.483-8.172 1.553-2.912.069-5.923.141-7.582 1.579-1.664 1.443-2.162 4.418-2.643 7.295-.484 2.897-.985 5.894-2.689 7.858-1.699 1.959-4.589 2.877-7.385 3.766-2.784.885-5.664 1.799-6.86 3.658-1.185 1.839-.828 4.826-.483 7.714.349 2.924.71 5.948-.377 8.324-1.071 2.341-3.574 4.03-5.995 5.663-2.432 1.641-4.947 3.338-5.574 5.478-.609 2.079.521 4.707 1.717 7.49 1.168 2.717 2.376 5.527 2.004 8.136-.222 1.556-1.036 3.031-2.059 4.459H3.196l14.405 29.625c.269.552.269 1.197 0 1.749L3.196 157.499h24.737c-.163 2.037-.109 3.946.74 5.264 1.196 1.858 4.076 2.773 6.86 3.658 2.795.888 5.686 1.807 7.385 3.766 1.704 1.964 2.205 4.96 2.689 7.858.481 2.877.979 5.852 2.643 7.295 1.659 1.438 4.67 1.51 7.582 1.579 2.94.069 5.981.142 8.173 1.553 2.173 1.399 3.49 4.125 4.764 6.76s2.591 5.361 4.61 6.284c.606.277 1.314.412 2.164.412 1.656 0 3.62-.527 5.519-1.037 2.039-.547 4.147-1.113 6.092-1.113.817 0 1.543.097 2.221.295 2.459.721 4.484 2.951 6.442 5.107 1.977 2.177 4.021 4.428 6.243 4.745 2.163.303 4.672-1.252 7.135-2.757 2.533-1.549 5.153-3.15 7.806-3.15s5.272 1.601 7.806 3.15c2.462 1.505 4.98 3.068 7.135 2.757 2.221-.316 4.266-2.567 6.243-4.745 1.958-2.156 3.983-4.386 6.442-5.107.678-.199 1.404-.295 2.221-.295 1.945 0 4.053.566 6.091 1.113 1.899.51 3.863 1.038 5.519 1.038.85 0 1.558-.135 2.164-.412 2.019-.923 3.336-3.649 4.61-6.284s2.591-5.361 4.764-6.76c2.191-1.411 5.232-1.483 8.172-1.553 2.913-.069 5.924-.141 7.583-1.579s2.162-4.418 2.643-7.295c.484-2.897.985-5.893 2.689-7.858 1.699-1.958 4.589-2.877 7.384-3.765 2.785-.885 5.664-1.8 6.861-3.659.849-1.318.902-3.228.74-5.265h24.701l-14.77-29.608z"/><path fill="#fff" d="M89.988 107.569h-4.656v16.8h12.792v-4.08h-8.136v-12.72zm23.136 12.84H104.1v-2.664h8.064v-3.672H104.1v-2.544h8.904v-3.96H99.516v16.8h13.608v-3.96zm6.552.96h6.48l1.224 3h4.992l-7.152-16.92h-4.488l-7.152 16.92h4.896l1.2-3zm3.263-8.376l1.872 4.776h-3.768l1.896-4.776zm14.449 2.16l7.191 9.216h4.089v-16.8h-4.584v8.88l-6.927-8.88h-4.354v16.8h4.584v-9.216zm-79.355 14.416l-2.928 9.72-3.24-9.768h-4.008l-3.24 9.768-2.928-9.72h-4.92l5.616 16.92h4.056l3.36-9.672 3.384 9.672h4.056l5.616-16.92h-4.824zm19.823 2.208c-.8-.784-1.752-1.404-2.856-1.86s-2.304-.684-3.6-.684-2.496.228-3.6.684-2.064 1.08-2.88 1.872a8.51 8.51 0 0 0-1.908 2.784 8.53 8.53 0 0 0-.684 3.396v.048c0 1.2.228 2.328.684 3.384s1.083 1.976 1.884 2.76 1.752 1.404 2.856 1.86 2.304.684 3.6.684 2.496-.228 3.6-.684 2.064-1.08 2.88-1.872a8.51 8.51 0 0 0 1.908-2.784 8.53 8.53 0 0 0 .684-3.396v-.048c0-1.2-.228-2.328-.684-3.384s-1.084-1.976-1.884-2.76zm-2.184 6.24c0 .608-.104 1.184-.313 1.728s-.497 1.02-.866 1.428-.818.732-1.348.972-1.115.36-1.757.36-1.228-.124-1.757-.372-.983-.58-1.36-.996-.67-.896-.879-1.44-.312-1.12-.312-1.728v-.048a4.95 4.95 0 0 1 .301-1.728 4.23 4.23 0 0 1 .866-1.428c.377-.408.827-.732 1.348-.972s1.103-.36 1.745-.36 1.228.124 1.757.372.987.58 1.372.996.682.896.89 1.44.313 1.12.313 1.728v.048zm20.544.552c.624-.848.936-1.92.936-3.216v-.048c0-1.648-.496-2.952-1.488-3.912-.56-.576-1.288-1.023-2.184-1.344s-1.992-.48-3.288-.48h-7.944v16.8h4.656v-5.088h2.04l3.384 5.088h5.376l-4.008-5.856c1.056-.448 1.896-1.096 2.52-1.944zm-3.744-2.928c0 .608-.216 1.092-.648 1.452s-1.048.54-1.848.54h-3.072v-4.032h3.048c.784 0 1.4.165 1.848.492s.672.828.672 1.5v.048zm22.392-6.072h-5.52l-5.784 6.816v-6.816h-4.656v16.8h4.656v-4.344l1.704-1.896 4.224 6.24h5.592l-6.576-9.576 6.36-7.224zm12.672 8.104c-.544-.399-1.204-.739-1.98-1.019a20.47 20.47 0 0 0-2.604-.73l-1.428-.371c-.376-.12-.672-.239-.888-.359s-.368-.251-.456-.396-.132-.312-.132-.503v-.048c0-.303.14-.559.42-.766s.7-.312 1.26-.312c.752 0 1.532.141 2.34.42s1.596.692 2.364 1.236l2.328-3.298c-.912-.74-1.932-1.3-3.06-1.678s-2.412-.568-3.852-.568c-1.008 0-1.912.132-2.712.395s-1.484.635-2.052 1.114a4.78 4.78 0 0 0-1.296 1.701c-.296.655-.444 1.374-.444 2.156v.047c0 .863.164 1.585.492 2.168a4.34 4.34 0 0 0 1.344 1.461c.567.391 1.236.711 2.004.958l2.496.682 1.404.372c.36.12.648.244.864.372s.364.259.444.395.12.292.12.467v.048c0 .367-.164.651-.492.851s-.804.299-1.428.299c-1.952 0-3.768-.672-5.448-2.016l-2.592 3.103c1.04.934 2.236 1.634 3.588 2.101s2.78.7 4.284.7c1.024 0 1.952-.124 2.784-.371s1.544-.607 2.136-1.078 1.052-1.042 1.38-1.713.492-1.437.492-2.3v-.048c0-.782-.144-1.458-.432-2.024s-.704-1.049-1.248-1.448zm13.968-1.817h-5.976v-6.288h-4.656v16.8h4.656v-6.384h5.976v6.384h4.656v-16.8h-4.656v6.288zm21.984-4.079c-.8-.784-1.752-1.404-2.856-1.86s-2.304-.684-3.6-.684-2.496.228-3.6.684-2.064 1.08-2.88 1.872a8.51 8.51 0 0 0-1.908 2.784 8.53 8.53 0 0 0-.684 3.396v.048c0 1.2.228 2.328.684 3.384s1.083 1.976 1.884 2.76 1.752 1.404 2.856 1.86 2.304.684 3.6.684 2.496-.228 3.6-.684 2.064-1.08 2.88-1.872a8.51 8.51 0 0 0 1.908-2.784 8.53 8.53 0 0 0 .684-3.396v-.048c0-1.2-.228-2.328-.684-3.384a8.58 8.58 0 0 0-1.884-2.76zm-2.184 6.24c0 .608-.104 1.184-.313 1.728s-.497 1.02-.866 1.428-.818.732-1.348.972-1.115.36-1.757.36-1.228-.124-1.757-.372-.983-.58-1.36-.996-.67-.896-.879-1.44-.312-1.12-.312-1.728v-.048a4.95 4.95 0 0 1 .301-1.728 4.23 4.23 0 0 1 .866-1.428c.377-.408.827-.732 1.348-.972s1.103-.36 1.745-.36 1.228.124 1.757.372.987.58 1.372.996.682.896.89 1.44.313 1.12.313 1.728v.048zm18.863-6.9c-.608-.504-1.344-.888-2.208-1.152s-1.824-.396-2.88-.396h-7.2v16.8h4.656v-4.8h2.304c1.04 0 2.004-.128 2.892-.384s1.652-.64 2.292-1.152 1.14-1.144 1.5-1.896.54-1.624.54-2.616v-.048c0-.928-.164-1.76-.492-2.496a5.04 5.04 0 0 0-1.404-1.86zm-2.759 4.608c0 .676-.236 1.21-.708 1.604s-1.125.591-1.956.591h-2.208v-4.464h2.184c.848 0 1.508.189 1.98.567s.708.93.708 1.653v.049zm18.984 3.397a4.08 4.08 0 0 0-1.248-1.449c-.544-.399-1.204-.739-1.98-1.019a20.47 20.47 0 0 0-2.604-.73l-1.428-.371c-.376-.12-.672-.239-.888-.359s-.368-.251-.456-.396-.132-.312-.132-.503v-.048c0-.303.14-.559.42-.766s.7-.312 1.26-.312c.752 0 1.532.141 2.34.42s1.596.692 2.364 1.236l2.328-3.298c-.912-.74-1.932-1.3-3.06-1.678s-2.412-.568-3.852-.568c-1.008 0-1.912.132-2.712.395s-1.484.635-2.052 1.114a4.78 4.78 0 0 0-1.296 1.701c-.296.655-.444 1.374-.444 2.156v.047c0 .863.164 1.585.492 2.168a4.34 4.34 0 0 0 1.344 1.461c.567.391 1.236.711 2.004.958l2.496.682 1.404.372c.36.12.648.244.864.372s.364.259.444.395.12.292.12.467v.048c0 .367-.164.651-.492.851s-.804.299-1.428.299c-1.952 0-3.768-.672-5.448-2.016l-2.592 3.103c1.04.934 2.236 1.634 3.588 2.101s2.78.7 4.284.7c1.024 0 1.952-.124 2.784-.371s1.544-.607 2.136-1.078 1.052-1.042 1.38-1.713.492-1.437.492-2.3v-.048c-.001-.781-.145-1.456-.432-2.023z"/><path opacity=".03" d="M215.999 127.891a2 2 0 0 1-.21-.893H17.803a2.01 2.01 0 0 1-.201.875L3.196 157.499h227.571l-14.768-29.608z"/><path opacity=".05" d="M173.347 94.499c-5.329-26.244-28.533-46-56.347-46s-51.019 19.756-56.347 46h112.694z"/><path opacity=".1" fill-rule="evenodd" d="M124.853 81.71c-.849-1.67-1.907-3.2-3.141-4.61-1.091-1.248-2.296-2.37-3.682-3.294-1.284-.856-2.689-1.177-4.219-.97-1.211.165-2.334.599-3.423 1.128-1.15.558-2.241 1.222-3.34 1.872l-2.538 1.383c-.5.229-1.015.426-1.484.724-1.342.853-2.153 2.061-2.427 3.617-.217 1.226-.067 2.422.357 3.589.165.456.394.863.808 1.14l.371.23.683.248c.021 0 .042-.002.061.002.566.144 1.144.188 1.724.198 1.051.017 2.095-.082 3.131-.23.908-.13 1.796-.084 2.681.145.745.193 1.478.42 2.189.71l2.218.929 4.082 1.848c.837.374 1.718.596 2.64.627.905.03 1.766-.136 2.542-.617 1.183-.733 1.782-1.855 2.065-3.169.148-.684.082-1.372-.05-2.053-.232-1.214-.689-2.35-1.248-3.447zm6.586-9.663c-.548-.52-1.103-.603-1.756-.224-.292.169-.567.384-.814.614l-1.281 1.276-1 .956c-.498.539-.899 1.146-1.118 1.854-.267.863-.129 1.647.483 2.334.275.307.599.551.954.757.27.157.539.32.855.371.48.078.94-.01 1.385-.187 1.103-.44 1.898-1.226 2.498-2.226l.324-.588.317-.867c.006-.041.008-.082.02-.121.181-.701.223-1.409.082-2.121-.14-.698-.42-1.328-.949-1.828zm-26.799-7.91c.103-.106.204-.228.26-.361l.495-1.277.659-1.987 1.373-3.073.427-.898c-.039.011-.061.034-.081.058l-1.875 2.348c-.488.621-.942 1.267-1.318 1.964l-.306.584-.308.844-.005.083c-.033.233-.084.466-.09.701-.011.376.077.728.352 1.007.135.138.282.145.417.007zm11.455 4.449c.251.325.561.571.979.644.36.062.708-.013 1.043-.137 1.021-.374 1.862-.998 2.538-1.84.321-.4.587-.842.632-1.362.05-.578.185-1.137.299-1.702l.228-1.486c.061-.891-.258-1.626-.983-2.186-.414-.32-.854-.439-1.368-.345-.456.083-.895.213-1.311.41-1.17.553-2.071 1.37-2.543 2.582l-.12.384c-.248 1.127-.302 2.26-.08 3.398.115.591.31 1.154.686 1.64zm-8.94-3.107c-.135.905-.043 1.795.21 2.672.144.502.341.981.668 1.397.214.275.482.464.838.52a4.49 4.49 0 0 0 2.807-.448c.583-.3 1.013-.742 1.174-1.398.269-1.098.396-2.213.398-3.341.002-.83-.064-1.652-.354-2.44-.166-.452-.404-.854-.817-1.135a.5.5 0 0 0-.449-.083c-.192.058-.387.112-.567.196-1.058.495-1.987 1.17-2.802 2.003-.398.407-.744.852-.981 1.482l-.125.575zm14.745 4.666c-.166.751-.152 1.496.163 2.21.322.734.874 1.168 1.7 1.211.702.036 1.335-.179 1.919-.546 1.037-.652 1.689-1.606 2.086-2.613.376-1.043.483-2.006.4-2.991-.069-.809-.25-1.588-.633-2.314-.31-.588-.821-.801-1.447-.794-.519.005-.901.29-1.227.663-.409.466-.696 1.011-.993 1.549-.333.599-.655 1.205-1.074 1.751-.43.562-.741 1.182-.894 1.874zm-18.365 5.165c1.134-.444 1.882-1.284 2.343-2.373l.125-.437c.246-1.177.187-2.337-.232-3.469-.186-.498-.461-.94-.903-1.26-.51-.37-.823-.37-1.279.003-.519.424-.954.927-1.357 1.458-.607.797-1.134 1.641-1.454 2.599-.209.634-.25 1.277-.111 1.929a2.15 2.15 0 0 0 2.868 1.55zm24.568-12.233a1.17 1.17 0 0 0 .266-.241c.272-.328.416-.718.527-1.12.196-.712.238-1.438.2-2.173-.058-1.128-.214-2.247-.386-3.363l-.193-1.19c-.011 0-.023-.001-.034-.003l-.064.238-.218.998a9.4 9.4 0 0 0-.186 2.002c.008.313-.006.635-.074.939l-.512 2.017c-.08.337-.128.685-.16 1.03-.025.278.035.548.224.771a.42.42 0 0 0 .61.095zm-7.461-4.978c.143.304.398.324.594.056a2.62 2.62 0 0 0 .363-.664l.504-1.628c.18-.691.328-1.392.375-2.105s.169-1.416.317-2.113l.133-.63-.035-.015-.739.984c-.399.564-.788 1.143-.999 1.804a22.24 22.24 0 0 0-.506 1.938c-.128.57-.211 1.154-.162 1.741a1.85 1.85 0 0 0 .155.632zm-9.136 1.183c.232.052.429-.03.564-.214a2.21 2.21 0 0 0 .287-.504c.225-.585.3-1.206.395-1.821.069-.447.084-.91.277-1.324l1.262-2.586.389-.734c-.035.008-.056.026-.073.047l-1.23 1.358c-.728.818-1.42 1.66-1.862 2.679-.256.592-.497 1.188-.598 1.829-.045.277-.063.552.022.826s.308.388.567.444zm21.795 6.255l-.202-1.036-.024.008-.209 1.515-.3 1.64c-.113.509-.413.94-.67 1.385-.196.342-.398.683-.51 1.065-.094.325-.019.525.253.675.366.201.684.144.925-.209.153-.225.283-.472.374-.728l.406-1.347a4.33 4.33 0 0 0 .146-.842c.042-.716-.067-1.423-.189-2.126z"/><g fill="#fff"><path opacity=".2" d="M117 206.019c2.09 0 4.465 1.452 6.763 2.856 2.485 1.519 5.055 3.09 7.614 3.09a6.15 6.15 0 0 0 .847-.059c2.935-.418 5.226-2.941 7.441-5.381 1.772-1.952 3.605-3.97 5.524-4.532 1.819-.532 4.607.127 7.231.831 2.024.544 4.118 1.106 6.038 1.106 1.143 0 2.123-.194 2.996-.594 2.673-1.223 4.15-4.278 5.578-7.232 1.154-2.386 2.347-4.854 4.046-5.949 1.718-1.107 4.473-1.172 7.137-1.235 3.266-.077 6.643-.157 8.846-2.067s2.765-5.25 3.305-8.477c.439-2.624.893-5.338 2.227-6.877 1.33-1.534 3.948-2.365 6.479-3.17 3.122-.992 6.351-2.018 7.937-4.481.809-1.256 1.092-2.752 1.128-4.348H234l-1.489-2.985a67.87 67.87 0 0 0-7.162-9.877l5.418 10.863H115.91c-5.659 9.875-8.91 21.304-8.91 33.5a67.48 67.48 0 0 0 2.533 18.303l.705-.427c2.297-1.406 4.672-2.858 6.762-2.858zm10-192.52c0-3.994-.319-7.912-.92-11.737a59.64 59.64 0 0 0-2.317 1.361c-2.297 1.404-4.673 2.856-6.762 2.856s-4.465-1.452-6.762-2.856c-2.761-1.688-5.653-3.426-8.461-3.031-2.935.418-5.226 2.941-7.44 5.38-1.772 1.952-3.604 3.97-5.524 4.533-1.817.533-4.608-.126-7.231-.831-2.024-.543-4.118-1.105-6.038-1.105-1.143 0-2.124.194-2.997.594-2.673 1.223-4.15 4.277-5.578 7.232-1.153 2.386-2.346 4.854-4.046 5.949-1.718 1.107-4.473 1.172-7.137 1.235-3.266.077-6.643.157-8.845 2.067-2.208 1.915-2.765 5.25-3.305 8.476-.438 2.625-.892 5.338-2.227 6.877-1.33 1.534-3.948 2.366-6.48 3.17-3.122.992-6.35 2.018-7.936 4.481-1.575 2.445-1.174 5.795-.787 9.035.316 2.649.644 5.39-.209 7.255-.837 1.83-3.104 3.359-5.295 4.837-2.726 1.839-5.544 3.741-6.375 6.573-.225.766-.274 1.559-.218 2.364A74.61 74.61 0 0 0 52 88.499c41.422 0 75-33.579 75-75z"/><path d="M215.862 94.499h-12.118c-5.113-38.776-35.715-69.629-74.374-75.125l-.244-.034c-1.244-.173-2.496-.319-3.755-.439l-.381-.034a87.58 87.58 0 0 0-3.752-.263l-.334-.013a87.23 87.23 0 0 0-3.905-.091h-.002a88.34 88.34 0 0 0-3.896.091l-.345.013a86.72 86.72 0 0 0-3.736.262l-.402.036a86.27 86.27 0 0 0-3.73.437l-.275.039c-38.649 5.5-69.244 36.351-74.356 75.122H18.138c-.344.678-.76 1.345-1.23 2h200.184a15.49 15.49 0 0 1-1.23-2.001zm-182.931 0c5.632-41.373 41.173-73.368 84.067-73.368s78.439 31.995 84.071 73.368H32.931zm-5.997 63a18.95 18.95 0 0 0-.064 2h20.942c13.991 18.053 34.876 30.506 58.671 33.37l.37.042 2.03.211.597.053 1.867.138.656.042 1.945.086.543.021 2.508.037c.84 0 1.678-.014 2.513-.037l.523-.02 1.97-.087.632-.04 1.898-.141.566-.05 2.072-.215.33-.038c23.801-2.861 44.692-15.315 58.686-33.372h20.943c.017-.641-.01-1.312-.064-2H26.934zm90.065 33.37c-26.529 0-50.246-12.244-65.82-31.37h131.643c-15.576 19.126-39.293 31.37-65.823 31.37zM100.281 30.036a1.29 1.29 0 0 0 1.022-1.572 1.31 1.31 0 0 0-1.562-1.021c-.722.153-1.175.842-1.029 1.559a1.3 1.3 0 0 0 1.569 1.034zm-2.874 2.84l-1.937.615.518 1.643c-.088-.015-.142-.052-.193-.09-.433-.315-.896-.565-1.411-.716-1.186-.353-2.326-.177-3.427.323-1.538.703-2.519 1.889-2.936 3.52-.42 1.619-.128 3.152.694 4.593 1.099 1.921 3.203 2.98 5.376 2.675 1.398-.198 2.58-.812 3.411-1.99a.61.61 0 0 0 .105-.329l.008-2.589c0-.044.011-.087.017-.13.01 0 .017-.001.028-.001v-.002l.008.027.998 3.271c.214.758.099 1.503-.331 2.18-.448.705-1.105 1.146-1.872 1.43-1.524.563-3.047.513-4.568-.018l-.376-.135.073 1.911c0 .041.074.097.124.112 2.246.711 4.414.534 6.475-.629.642-.364 1.185-.828 1.614-1.391.273-.363.5-.762.675-1.212.399-1.035.385-2.071.084-3.115l-3.157-9.953zm-2.691 10.411c-1.967.629-3.98-.431-4.624-2.435-.645-2.022.373-4.051 2.351-4.683 1.955-.625 3.925.375 4.61 2.316l.083.26-.003-.001c.56 1.983-.457 3.916-2.417 4.543zm-16.083-7.215l-1.556.886-1.202.682.53 2.017.799-.454 2.262 13.773 1.625-.924c.385-.22.389-.22.313-.653l-.497-2.847c-.023-.123.009-.188.1-.246l5.372-3.056c.096-.046.167-.042.263.042l2.19 1.88c.335.285.335.284.721.064l1.625-.925c-.055-.048-10.645-8.945-12.125-10.198-.14-.117-.245-.146-.42-.041zm.515 2.719l.027-.01c.033.025 5.835 5.036 5.838 5.039l-4.539 2.582c-.001-.005-1.34-7.553-1.348-7.594l.022-.017zm-.034-.064l.001.005-.004-.003v-.004l.003.002zm72.296 9.813l4.45-7.559-1.755-1.033-.875 1.486c-.047-.076-.053-.142-.06-.206-.055-.531-.18-1.044-.41-1.527-.53-1.119-1.423-1.85-2.53-2.335a5.11 5.11 0 0 0-4.585.164c-1.481.774-2.427 2.014-2.95 3.586-.697 2.1-.078 4.376 1.6 5.789 1.083.91 2.329 1.376 3.761 1.211a.63.63 0 0 0 .315-.145l1.932-1.724c.032-.027.071-.049.108-.073.006.005.013.013.019.019l-1.799 3.053 2.085 1.228 1.486-1.466-.792-.468zm-5.096-2.609c-1.784-1.043-2.34-3.249-1.276-5.067 1.071-1.831 3.261-2.43 5.053-1.38 1.771 1.037 2.343 3.172 1.356 4.979l-.137.234c-1.103 1.741-3.22 2.276-4.996 1.234zm-5.516-11.734c-.872-.784-1.925-1.187-3.077-1.315-1.943-.219-3.577.398-4.838 1.908-.792.944-1.214 2.055-1.35 3.268-.233 2.081.479 3.783 2.195 4.986 1.813 1.274 3.858 1.543 6.007 1.18.074-.012.155-.083.196-.149l.965-1.577c.027-.044.045-.093.075-.158l-.823.155c-1.538.248-3.042.148-4.479-.493-.98-.438-1.727-1.126-2.049-2.19-.142-.461-.165-.933-.098-1.432l8.538 2.481c.107-.281.226-.526.292-.789.092-.363.178-.736.212-1.109.179-1.871-.349-3.488-1.766-4.766zm-.173 4.519l-6.682-1.941a3.67 3.67 0 0 1 1.271-1.509c.857-.578 1.799-.698 2.786-.479 2.01.447 2.898 2.14 2.625 3.929zm18.279 6.174c-.008-.014-.017-.025-.021-.035l.931-1.374-2.003-1.358-1.575 1.366.762.519-4.922 7.258 2 1.359 1.577-1.367-.763-.519 1.96-2.891c.274-.383.589-.734.965-1.029.968-.758 2.197-.933 3.226-.115.088.07.146.037.216-.017l1.538-1.168c.05-.035.091-.076.149-.129-1.235-1.157-2.59-1.201-4.04-.5zm-57.203-13.161l-2.364.514-.097 2.083.9-.194 1.862 8.571 2.364-.514.097-2.083-.901.195-1.861-8.572zm28.05 1.725c.854-.62 1.233-1.498 1.296-2.53.083-1.394-.409-2.539-1.492-3.417-.699-.565-1.513-.854-2.4-.943l-6.252-.623-.733 1.954.916.089-1.292 13.009 2.025.201.001-.002 4.562.441c1.092.094 2.104-.188 2.988-.866.927-.714 1.42-1.68 1.567-2.828.137-1.084-.119-2.06-.851-2.892-.371-.419-.82-.735-1.342-1.022.083-.04.133-.063.181-.089.275-.159.568-.293.826-.482zm-1.553 5.437c-.479.549-1.111.83-1.832.771l-4.208-.418c-.142-.013-.137-.09-.125-.192l.43-4.343c.01-.108.032-.173.152-.168l4.083.411c.941.1 1.631.58 1.962 1.479.332.894.171 1.736-.462 2.46zm.65-7.916c-.119 1.214-1.053 2.083-2.246 2.009-.008 0-3.584-.356-3.785-.375-.141-.014-.134-.089-.125-.193l.406-4.077c.009-.111.031-.173.15-.168l3.798.377c1.141.165 1.916 1.243 1.802 2.427zm-13.076-.621c-1.078-.466-2.207-.508-3.336-.26-1.913.417-3.264 1.522-3.975 3.357-.446 1.147-.491 2.335-.229 3.528.445 2.047 1.665 3.431 3.676 4.021 2.124.625 4.148.225 6.068-.809.067-.035.121-.126.14-.203l.408-1.803c.01-.051.01-.103.02-.175l-.729.41c-1.377.728-2.837 1.116-4.401.97-1.071-.1-1.995-.513-2.644-1.417-.282-.393-.455-.833-.55-1.327l8.884-.386c.01-.3.041-.573.022-.84-.029-.375-.065-.755-.153-1.12-.431-1.829-1.451-3.192-3.201-3.946zm-5.669 4.638c.082-.685.309-1.296.719-1.837.627-.821 1.48-1.237 2.488-1.345 2.048-.221 3.431 1.098 3.746 2.88l-6.953.302zm-4.455-8.298l-2.393.355-.236 2.07.91-.134 1.92 12.931 2.39-.356.237-2.072-.911.134-1.917-12.928z"/></g></svg>